# xmcd CD database file
#
# Track frame offsets:
#	150
#	49545
#	73310
#	101722
#	144382
#	221955
#
# Disc length: 3618 seconds
#
# Revision: 0
# Processed by: cddbd v1.5.2PL0 Copyright (c) Steve Scherf et al.
# Submitted via: CDex 1.70beta2
#
DISCID=5e0e2006
DTITLE=Rundfunk Blasorchester Leipzig - Konzerte für Klarinette(n) and Militärorchester
DYEAR=1993
DGENRE=Blasmusik
TTITLE0=Concertante, op.35 (Franz V. Krommer) 1. Allegro
TTITLE1=Concertante, op.35 (Franz V. Krommer) 2. Adagio
TTITLE2=Concertante, op.35 (Franz V. Krommer) 3. Rondo
TTITLE3=Introduction and Variationen über ein Thema v. Mozart (Anonymus) 
TTITLE4=Concertino op.63 (Karl G. Reissiger)
TTITLE5=Concertante op.23 (Iwan Müller)
EXTD=YEAR: 1993
EXTT0=
EXTT1=
EXTT2=
EXTT3=
EXTT4=
EXTT5=
PLAYORDER=
